<svg width="169" height="133" viewBox="0 0 169 133" fill="none" xmlns="http://www.w3.org/2000/svg">
<g clip-path="url(#clip0_2474_84374)">
<path d="M106.267 121.217L103.712 121.217L102.497 111.406L106.268 111.406L106.267 121.217Z" fill="#9E616A"/>
<path d="M106.919 123.683L98.6814 123.683V123.579C98.6815 122.732 99.0193 121.92 99.6206 121.322C100.222 120.723 101.037 120.387 101.888 120.387H101.888L106.919 120.387L106.919 123.683Z" fill="#2F2E41"/>
<path d="M97.0985 121.217L94.5437 121.217L93.3284 111.406L97.0989 111.406L97.0985 121.217Z" fill="#9E616A"/>
<path d="M97.75 123.683L89.5125 123.683V123.579C89.5125 122.732 89.8503 121.92 90.4516 121.322C91.0529 120.723 91.8684 120.387 92.7187 120.387H92.7189L97.7502 120.387L97.75 123.683Z" fill="#2F2E41"/>
<path d="M67.3444 52.4704C67.5485 52.7499 67.8118 52.9815 68.1156 53.1488C68.4194 53.3161 68.7564 53.4151 69.1027 53.4387C69.4491 53.4624 69.7964 53.4101 70.1203 53.2856C70.4442 53.1611 70.7367 52.9674 70.9773 52.7182L76.0324 54.6836L77.9813 51.9164L70.8034 49.2407C70.3561 48.866 69.7863 48.6678 69.2019 48.6835C68.6176 48.6992 68.0594 48.9277 67.633 49.3258C67.2067 49.7239 66.9418 50.2639 66.8886 50.8435C66.8354 51.423 66.9975 52.0019 67.3444 52.4704V52.4704Z" fill="#9E616A"/>
<path d="M97.0663 69.2363L90.4106 71.3979L92.6339 118.328L97.7707 118.454L100.399 85.3586L100.996 118.323L107.348 118.672L109.689 69.2363H97.0663Z" fill="#2F2E41"/>
<path d="M92.5753 41.5723L109.658 37.877L111.557 52.5215L109.975 59.5187L110.609 70.1526C110.609 70.1526 97.1018 76.846 90.4104 71.3982C90.4104 71.3982 95.7886 57.3336 92.6712 50.7497L92.5753 41.5723Z" fill="#E4E4E4"/>
<path d="M95.5337 43.6438L92.5753 41.5724C92.5753 41.5724 92.4005 41.3314 89.9352 44.2009C87.4699 47.0704 82.4687 51.6348 82.4687 51.6348L74.1333 48.5227L72.6147 54.1089L82.3021 58.6036L96.0171 49.4841L95.5337 43.6438Z" fill="#E4E4E4"/>
<path d="M110.612 75.642C110.926 75.4944 111.204 75.28 111.425 75.014C111.647 74.748 111.807 74.4368 111.895 74.1024C111.983 73.768 111.996 73.4185 111.934 73.0784C111.871 72.7384 111.735 72.4162 111.534 72.1344L114.415 67.5557L112.047 65.1338L108.07 71.6568C107.616 72.0245 107.315 72.545 107.221 73.1195C107.128 73.694 107.25 74.2826 107.563 74.7738C107.876 75.2651 108.36 75.6248 108.922 75.7848C109.484 75.9448 110.085 75.894 110.612 75.642Z" fill="#9E616A"/>
<path d="M106.993 40.762L109.658 37.877C109.658 37.877 112.626 36.8477 115.052 42.1665C117.477 47.4853 120.186 58.274 120.186 58.274L113.852 70.421L108.933 68.2327L113.852 58.1882L108.647 50.7497L106.993 40.762Z" fill="#E4E4E4"/>
<path d="M102.475 36.675C105.162 35.2126 106.15 31.8582 104.681 29.1828C103.212 26.5075 99.843 25.5242 97.1559 26.9867C94.4688 28.4492 93.4813 31.8036 94.9502 34.4789C96.4191 37.1543 99.7882 38.1375 102.475 36.675Z" fill="#9E616A"/>
<path d="M104.492 26.8942C104.229 25.798 103.311 24.9327 102.255 24.527C101.199 24.1212 100.023 24.1251 98.9076 24.3139C97.0553 24.6272 95.3257 25.4225 93.6214 26.2098L94.9351 26.8355L93.1223 26.9391L94.523 27.6603C94.149 27.9437 93.8644 28.328 93.7032 28.7676C93.5419 29.2072 93.5106 29.6836 93.6131 30.1404C93.6852 30.4393 93.8779 30.7686 94.1865 30.779C94.5595 30.7914 94.7542 30.3586 95.0153 30.0932C95.3627 29.7399 95.9113 29.6616 96.4033 29.7281C96.8953 29.7947 97.3619 29.9831 97.8473 30.0873C98.461 30.2147 99.0952 30.2076 99.7059 30.0667C100.317 29.9259 100.889 29.6545 101.384 29.2714L103.131 33.4591C103.114 33.3011 103.135 33.1415 103.191 32.9928C103.246 32.844 103.336 32.7101 103.452 32.6014C103.568 32.4928 103.708 32.4124 103.861 32.3665C104.014 32.3206 104.175 32.3104 104.332 32.3368C104.489 32.3632 104.638 32.4254 104.767 32.5186C104.897 32.6119 105.002 32.7335 105.076 32.8741C105.15 33.0147 105.191 33.1705 105.195 33.3292C105.198 33.4879 105.165 33.6454 105.097 33.7892C105.853 32.6537 106.462 31.3636 106.483 30.0013C106.503 28.6391 105.825 27.204 104.583 26.6324" fill="#2F2E41"/>
<path d="M40.2305 111.488L37.8686 115.185L39.2444 110.372C36.3396 107.354 32.3183 105.146 32.3183 105.146C32.3183 105.146 27.3667 113.249 28.6994 118.233C30.0321 123.217 33.4734 124.169 37.1445 123.196C40.8155 122.222 43.3262 119.693 41.9934 114.709C41.6968 113.6 41.0524 112.511 40.2305 111.488Z" fill="#F2F2F2"/>
<path d="M37.1055 115.553L37.1712 115.799C37.9202 118.658 38.0322 121.014 37.5026 122.835C37.4953 122.862 37.4865 122.887 37.4793 122.914L37.3558 122.878L37.2375 122.841C37.8374 120.868 37.5697 118.375 36.9171 115.88C36.8968 115.8 36.8763 115.718 36.8533 115.637C36.5676 114.583 36.2177 113.534 35.8368 112.525C35.808 112.447 35.7776 112.368 35.7473 112.288C35.2376 110.959 34.6807 109.708 34.1647 108.63C34.1286 108.554 34.0913 108.477 34.0542 108.403C33.1734 106.581 32.4267 105.29 32.2589 105.005C32.239 104.97 32.2274 104.951 32.2249 104.946L32.3321 104.883L32.333 104.881L32.4415 104.817C32.444 104.822 32.4833 104.886 32.552 105.006C32.8115 105.453 33.5007 106.67 34.2953 108.306C34.3308 108.38 34.3681 108.456 34.4042 108.533C34.8239 109.407 35.2688 110.391 35.692 111.436C35.7987 111.698 35.9008 111.957 35.9982 112.214C36.0298 112.293 36.0601 112.372 36.0889 112.45C36.5008 113.541 36.8397 114.575 37.1055 115.553Z" fill="white"/>
<path d="M34.2954 108.306C34.2165 108.339 34.1364 108.372 34.0543 108.403C33.8317 108.487 33.6049 108.559 33.3748 108.621C32.3945 108.882 31.3678 108.921 30.3704 108.734C30.3364 108.812 30.3023 108.891 30.2673 108.97C31.3192 109.176 32.4043 109.139 33.4399 108.864C33.6855 108.799 33.9275 108.721 34.1648 108.63C34.2456 108.599 34.3258 108.566 34.4043 108.533C35.0541 108.257 35.6581 107.885 36.1956 107.429C36.1252 107.376 36.0564 107.324 35.989 107.272C35.4787 107.698 34.908 108.047 34.2954 108.306Z" fill="white"/>
<path d="M35.9983 112.214C35.9153 112.241 35.8317 112.266 35.7474 112.289C35.7221 112.297 35.6952 112.304 35.6696 112.311C34.607 112.592 33.4917 112.614 32.4189 112.374C31.3461 112.134 30.3476 111.639 29.5084 110.931C29.4787 111.016 29.449 111.101 29.4209 111.186C30.2885 111.897 31.3138 112.392 32.4117 112.63C33.5097 112.868 34.6488 112.842 35.7346 112.554C35.7688 112.545 35.803 112.536 35.8369 112.525C35.9221 112.501 36.0057 112.477 36.089 112.451C37.3755 112.039 38.5155 111.266 39.3727 110.226C39.3144 110.164 39.2561 110.103 39.1966 110.042C38.3655 111.061 37.254 111.815 35.9983 112.214Z" fill="white"/>
<path d="M37.1057 115.553C37.0221 115.583 36.9379 115.61 36.8534 115.637C36.7627 115.665 36.6718 115.691 36.5802 115.716C35.1519 116.092 33.6394 115.999 32.2693 115.448C30.8991 114.897 29.7449 113.92 28.9795 112.661C28.9509 112.774 28.9219 112.886 28.8958 112.999C29.7111 114.24 30.8986 115.195 32.2898 115.726C33.6809 116.258 35.2049 116.339 36.6452 115.959C36.7368 115.935 36.8281 115.909 36.9172 115.88C37.0033 115.855 37.0875 115.827 37.1714 115.799C38.8625 115.206 40.2644 113.996 41.0932 112.413C41.0434 112.33 40.9904 112.249 40.937 112.167C40.1507 113.749 38.7764 114.963 37.1057 115.553Z" fill="white"/>
<path d="M132.362 111.873L130.034 115.517L131.39 110.773C128.527 107.8 124.564 105.624 124.564 105.624C124.564 105.624 119.685 113.609 120.998 118.52C122.311 123.432 125.703 124.37 129.321 123.411C132.938 122.452 135.412 119.96 134.099 115.048C133.807 113.955 133.172 112.881 132.362 111.873Z" fill="#F2F2F2"/>
<path d="M129.282 115.879L129.347 116.121C130.085 118.939 130.195 121.262 129.673 123.056C129.666 123.082 129.658 123.107 129.65 123.134L129.529 123.098L129.412 123.062C130.003 121.117 129.74 118.66 129.096 116.202C129.076 116.123 129.056 116.042 129.034 115.962C128.752 114.924 128.407 113.89 128.032 112.895C128.003 112.818 127.974 112.74 127.944 112.662C127.441 111.353 126.893 110.12 126.384 109.057C126.349 108.982 126.312 108.907 126.275 108.833C125.407 107.038 124.671 105.766 124.506 105.485C124.486 105.45 124.475 105.431 124.472 105.427L124.578 105.364L124.579 105.363L124.686 105.3C124.688 105.304 124.727 105.367 124.795 105.485C125.051 105.926 125.73 107.125 126.513 108.738C126.548 108.811 126.585 108.886 126.62 108.961C127.034 109.823 127.472 110.793 127.889 111.822C127.994 112.08 128.095 112.336 128.191 112.589C128.222 112.667 128.252 112.745 128.28 112.822C128.686 113.896 129.02 114.916 129.282 115.879Z" fill="white"/>
<path d="M126.513 108.738C126.435 108.771 126.356 108.803 126.275 108.833C126.056 108.916 125.832 108.988 125.606 109.048C124.639 109.306 123.628 109.344 122.645 109.16C122.611 109.237 122.578 109.314 122.543 109.393C123.58 109.595 124.649 109.56 125.67 109.288C125.912 109.224 126.15 109.147 126.384 109.057C126.464 109.027 126.543 108.995 126.62 108.962C127.26 108.69 127.856 108.323 128.385 107.874C128.316 107.821 128.248 107.77 128.182 107.72C127.679 108.139 127.116 108.483 126.513 108.738Z" fill="white"/>
<path d="M128.191 112.589C128.109 112.616 128.027 112.64 127.944 112.662C127.919 112.67 127.892 112.677 127.867 112.684C126.82 112.961 125.721 112.983 124.663 112.746C123.606 112.509 122.622 112.022 121.795 111.325C121.766 111.408 121.737 111.491 121.709 111.576C122.564 112.276 123.574 112.764 124.656 112.998C125.738 113.233 126.861 113.207 127.931 112.924C127.965 112.915 127.998 112.906 128.032 112.896C128.116 112.872 128.198 112.848 128.28 112.822C129.548 112.416 130.671 111.655 131.516 110.629C131.459 110.569 131.401 110.508 131.343 110.448C130.524 111.452 129.428 112.196 128.191 112.589Z" fill="white"/>
<path d="M129.282 115.88C129.2 115.909 129.117 115.936 129.033 115.962C128.944 115.99 128.854 116.016 128.764 116.04C127.357 116.411 125.866 116.319 124.516 115.776C123.166 115.234 122.028 114.27 121.274 113.03C121.246 113.142 121.217 113.252 121.191 113.363C121.995 114.586 123.165 115.527 124.536 116.05C125.907 116.574 127.409 116.654 128.828 116.28C128.919 116.256 129.008 116.231 129.096 116.202C129.181 116.177 129.264 116.15 129.347 116.122C131.013 115.538 132.395 114.346 133.212 112.786C133.163 112.704 133.11 112.624 133.058 112.543C132.283 114.102 130.929 115.299 129.282 115.88Z" fill="white"/>
<path d="M84.1884 21.3553C84.1884 12.6402 78.0858 5.5752 70.5579 5.5752C63.03 5.5752 56.9275 12.6402 56.9275 21.3553C56.9275 29.2596 61.9474 35.8063 68.4975 36.9561V38.4432C68.4975 38.7242 68.6096 38.9936 68.8091 39.1922C69.0086 39.3909 69.2792 39.5025 69.5614 39.5025H71.5545C71.8366 39.5025 72.1072 39.3909 72.3068 39.1922C72.5063 38.9936 72.6184 38.7242 72.6184 38.4432V36.9561C79.1685 35.8063 84.1884 29.2596 84.1884 21.3553Z" fill="#FF571D"/>
<path d="M68.1699 38.2279C68.5963 37.8291 69.1045 37.527 69.6593 37.3422C70.2142 37.1574 70.8026 37.0944 71.3842 37.1574C71.9704 37.225 72.5328 37.4273 73.0271 37.7482C73.5213 38.0691 73.934 38.5 74.2325 39.0067C74.5312 39.4985 74.7187 40.049 74.7823 40.6201C74.8458 41.1913 74.7838 41.7693 74.6006 42.3142C74.2423 43.4009 73.4807 44.3052 72.7 45.1203C71.8808 45.9754 70.99 46.764 70.22 47.6652C68.9502 49.16 68.0635 50.9392 67.636 52.8502C67.2085 54.7611 67.2529 56.7468 67.7655 58.6369C68.4411 61.0326 69.8362 63.1654 71.7637 64.7494C72.0083 64.9485 72.2604 65.1382 72.5197 65.3184C72.8198 65.5275 73.104 65.0375 72.8064 64.8301C70.7138 63.3562 69.1673 61.2369 68.4061 58.7999C67.8289 56.9008 67.755 54.8854 68.1917 52.9495C68.6284 51.0136 69.5607 49.2231 70.898 47.7521C71.7103 46.8592 72.6198 46.0599 73.4319 45.1667C74.2098 44.3111 74.9189 43.3457 75.2228 42.2152C75.3766 41.6405 75.4147 41.0411 75.335 40.4517C75.2552 39.8622 75.0591 39.2942 74.758 38.7805C74.4583 38.2553 74.0529 37.7974 73.5671 37.4356C73.0813 37.0737 72.5257 36.8156 71.9351 36.6775C70.747 36.4203 69.5049 36.6344 68.4728 37.2743C68.2199 37.4349 67.9839 37.6204 67.7683 37.8281C67.5045 38.081 67.9064 38.4805 68.1699 38.2279V38.2279Z" fill="#3F3D56"/>
<path d="M31.6637 14.7468C27.4931 5.20115 17.428 0.357725 9.18271 3.92878C0.937385 7.49983 -2.3658 18.1331 1.80479 27.6788C5.58733 36.3363 14.2185 41.1256 21.9432 39.2778L22.6548 40.9066C22.7893 41.2143 23.0409 41.4563 23.3545 41.5792C23.6681 41.7021 24.0179 41.696 24.327 41.5622L26.51 40.6167C26.8191 40.4828 27.062 40.2322 27.1855 39.92C27.309 39.6078 27.3028 39.2595 27.1684 38.9518L26.4567 37.323C33.0809 32.9563 35.4462 23.4044 31.6637 14.7468Z" fill="#FF571D"/>
<path d="M22.1512 40.7786C22.4222 40.157 22.8213 39.5991 23.3227 39.1409C23.8241 38.6827 24.4165 38.3345 25.0617 38.1189C25.6952 37.9065 26.3677 37.8345 27.0321 37.908C27.6965 37.9815 28.3367 38.1987 28.9079 38.5443C29.4964 38.8914 30.0038 39.3595 30.3963 39.9172C30.7888 40.475 31.0574 41.1096 31.1841 41.7789C31.4752 43.3298 31.0029 44.9096 30.4662 46.3536C29.9036 47.8673 29.2025 49.3374 28.8113 50.9093C28.2669 53.1186 28.2559 55.4248 28.7792 57.6392C29.3025 59.8535 30.3452 61.9129 31.822 63.6487C33.6819 65.7946 36.1314 67.3521 38.8691 68.1295C39.2049 68.2238 39.5442 68.3042 39.8862 68.3732C40.243 68.4451 40.3957 67.9002 40.0372 67.8279C37.1887 67.2441 34.5929 65.7935 32.6087 63.6767C30.5053 61.4125 29.2346 58.5055 29.004 55.4299C28.8805 53.8716 29.0239 52.3038 29.4282 50.7934C29.8597 49.1995 30.5902 47.7073 31.1409 46.1544C31.6664 44.6725 32.0388 43.0812 31.7086 41.5131C31.4051 40.1323 30.5636 38.928 29.3689 38.1645C28.7963 37.7886 28.1544 37.5298 27.4805 37.403C26.8066 37.2763 26.1141 37.2841 25.4432 37.4262C24.0733 37.7352 22.873 38.5522 22.0866 39.7111C21.8953 40 21.7335 40.3073 21.6036 40.6282C21.464 40.9641 22.0132 41.1106 22.1512 40.7786L22.1512 40.7786Z" fill="#3F3D56"/>
<path d="M148.165 130.046L151.226 130.045L152.683 118.289L148.165 118.289L148.165 130.046Z" fill="#FFB6B6"/>
<path d="M147.384 129.05L153.413 129.05H153.413C154.432 129.05 155.409 129.453 156.13 130.17C156.85 130.888 157.255 131.86 157.255 132.875V132.999L147.384 133L147.384 129.05Z" fill="#2F2E41"/>
<path d="M130.046 127.454L132.964 128.373L137.914 117.602L133.607 116.245L130.046 127.454Z" fill="#FFB6B6"/>
<path d="M129.603 126.271L135.351 128.081L135.351 128.081C136.322 128.387 137.132 129.065 137.602 129.965C138.071 130.865 138.162 131.914 137.855 132.882L137.818 133L128.406 130.036L129.603 126.271Z" fill="#2F2E41"/>
<path d="M136.939 76.3535L135.24 81.1238L135.192 106.877L130.374 124.509L136.288 126.152L142.82 109.527L144.916 94.9236L147.677 109.611L147.297 127.069H153.501L153.97 100.167C154.101 92.6114 152.773 85.1013 150.059 78.0449V78.0449L136.939 76.3535Z" fill="#2F2E41"/>
<path d="M134.915 57.0303H144.945L149.135 61.2026L150.387 78.4489L135.24 80.8759L130.374 64.4204L133.024 57.4268L134.915 57.0303Z" fill="#E4E4E4"/>
<path d="M131.309 64.5848L115.867 58.8004L115.465 56.4093L125.204 48.2051L128.445 50.6256L122.57 57.0301L133.024 57.4267L131.309 64.5848Z" fill="#E4E4E4"/>
<path d="M127.076 51.5601C128.455 51.5601 129.573 50.447 129.573 49.074C129.573 47.701 128.455 46.5879 127.076 46.5879C125.697 46.5879 124.579 47.701 124.579 49.074C124.579 50.447 125.697 51.5601 127.076 51.5601Z" fill="#FFB6B6"/>
<path d="M132.868 52.2064L133.996 47.1407C134.194 46.2485 134.566 45.4039 135.092 44.6552C135.618 43.9064 136.287 43.2682 137.06 42.777C137.834 42.2858 138.698 41.9512 139.601 41.7924C140.505 41.6336 141.431 41.6536 142.327 41.8514C143.223 42.0492 144.071 42.4209 144.822 42.9452C145.574 43.4695 146.214 44.1361 146.707 44.9069C147.2 45.6777 147.535 46.5377 147.693 47.4376C147.852 48.3374 147.831 49.2596 147.631 50.1514L146.503 55.2171C146.449 55.4588 146.301 55.6693 146.091 55.8023C145.881 55.9353 145.627 55.9801 145.384 55.9268L133.58 53.3205C133.337 53.2666 133.126 53.119 132.992 52.9102C132.859 52.7013 132.814 52.4482 132.868 52.2064Z" fill="#2F2E41"/>
<path d="M140.641 54.116C143.357 53.3324 144.921 50.5051 144.134 47.801C143.347 45.0969 140.507 43.5399 137.791 44.3235C135.075 45.107 133.511 47.9343 134.298 50.6385C135.085 53.3426 137.925 54.8995 140.641 54.116Z" fill="#FFB6B6"/>
<path d="M132.293 47.19C132.611 45.7667 133.484 44.5274 134.719 43.744C135.955 42.9606 137.452 42.697 138.882 43.0111L139.899 43.2358C141.329 43.5531 142.574 44.4221 143.361 45.652C144.147 46.8819 144.412 48.3723 144.097 49.7963L144.074 49.8976L141.924 49.4228L141.646 47.2159L141.043 49.2284L139.932 48.983L139.792 47.8696L139.488 48.885L132.27 47.2913L132.293 47.19Z" fill="#2F2E41"/>
<path d="M137.462 54.775C137.392 54.6165 137.367 54.4415 137.392 54.27C137.417 54.0984 137.49 53.9374 137.603 53.8054C139.136 52.0013 141.487 48.5613 140.001 45.7918L139.894 45.5928L145.712 46.8774L143.775 55.5742L138.283 55.3357C138.227 55.3333 138.172 55.3261 138.118 55.3141C137.973 55.2823 137.839 55.2168 137.725 55.123C137.611 55.0293 137.521 54.91 137.462 54.775Z" fill="#2F2E41"/>
<path d="M144.546 57.1348L160.88 59.4471L161.793 61.6946L154.074 71.8063L150.382 70.1434L154.722 62.6227L144.431 64.493L144.546 57.1348Z" fill="#E4E4E4"/>
<path d="M169 24.3514C169 13.9417 161.711 5.50293 152.719 5.50293C143.728 5.50293 136.438 13.9417 136.438 24.3514C136.438 33.7926 142.434 41.6123 150.258 42.9857V44.762C150.258 45.0975 150.392 45.4193 150.63 45.6566C150.869 45.8939 151.192 46.0272 151.529 46.0272H153.91C154.247 46.0272 154.57 45.8939 154.808 45.6566C155.046 45.4193 155.18 45.0975 155.18 44.762V42.9857C163.004 41.6123 169 33.7926 169 24.3514Z" fill="#FF571D"/>
<path d="M149.828 44.4661C150.345 43.9824 150.961 43.6162 151.634 43.393C152.307 43.1699 153.021 43.0949 153.726 43.1734C154.418 43.2547 155.083 43.4918 155.67 43.8668C156.257 44.2418 156.751 44.7448 157.113 45.3379C157.482 45.9231 157.72 46.581 157.809 47.2664C157.899 47.9517 157.838 48.6482 157.631 49.3079C157.229 50.6029 156.348 51.6871 155.429 52.659C154.448 53.6958 153.374 54.6438 152.437 55.721C150.909 57.489 149.835 59.6001 149.308 61.8727C148.78 64.1453 148.815 66.5114 149.409 68.7676C150.204 71.6675 151.884 74.2501 154.216 76.1589C154.499 76.3884 154.791 76.6074 155.09 76.8156C155.391 77.0246 155.675 76.5346 155.377 76.3274C152.879 74.5697 151.03 72.0451 150.111 69.1405C149.413 66.8733 149.314 64.4654 149.824 62.149C150.333 59.8327 151.434 57.6862 153.019 55.9167C153.983 54.8458 155.068 53.8918 156.042 52.8313C156.976 51.8157 157.832 50.6754 158.216 49.3334C158.409 48.6556 158.465 47.9464 158.381 47.2469C158.297 46.5473 158.074 45.8713 157.726 45.258C157.379 44.6308 156.906 44.0816 156.336 43.645C155.766 43.2084 155.112 42.8938 154.414 42.7208C152.996 42.3962 151.507 42.6422 150.27 43.4051C149.967 43.5961 149.684 43.8176 149.426 44.0663C149.163 44.3196 149.565 44.7191 149.828 44.4661Z" fill="#3F3D56"/>
<path d="M151.797 74.6812C153.176 74.6812 154.294 73.5681 154.294 72.1951C154.294 70.8221 153.176 69.709 151.797 69.709C150.418 69.709 149.3 70.8221 149.3 72.1951C149.3 73.5681 150.418 74.6812 151.797 74.6812Z" fill="#FFB6B6"/>
<path d="M125.776 49.7725C125.645 49.9787 125.328 49.9487 125.15 49.8198C124.902 49.6409 124.982 49.2962 125.153 49.0926C125.694 48.4453 126.59 49.1287 126.711 49.7715C126.756 50.0849 126.707 50.4046 126.571 50.6908C126.436 50.9771 126.218 51.2173 125.947 51.3818C125.329 51.7463 124.526 51.5635 123.995 51.1272C122.887 50.217 123.188 48.3947 124.419 47.7363C125.205 47.3161 126.198 47.5005 126.972 47.8525C127.843 48.2487 128.592 48.8561 129.398 49.3623C131.165 50.4639 133.165 51.1437 135.24 51.3485C135.603 51.3854 135.6 50.8197 135.24 50.783C134.09 50.6647 132.961 50.394 131.883 49.9783C130.816 49.5479 129.804 48.9947 128.866 48.3299C127.918 47.6826 126.927 47.0538 125.753 46.9469C125.28 46.8918 124.8 46.9626 124.362 47.152C123.925 47.3415 123.546 47.6428 123.264 48.0255C123.012 48.3679 122.844 48.7635 122.772 49.1814C122.7 49.5993 122.727 50.0281 122.849 50.4343C122.997 50.8589 123.254 51.2371 123.596 51.5303C123.938 51.8235 124.352 52.0212 124.796 52.1033C125.223 52.1837 125.665 52.1293 126.06 51.9478C126.454 51.7662 126.782 51.4666 126.997 51.0907C127.43 50.3467 127.415 49.3474 126.763 48.7306C126.576 48.5413 126.342 48.4048 126.084 48.3351C125.827 48.2654 125.556 48.265 125.298 48.3339C125.061 48.4137 124.852 48.5607 124.697 48.7568C124.542 48.9529 124.448 49.1897 124.427 49.4382C124.364 50.4039 125.74 50.8868 126.267 50.0579C126.463 49.7494 125.971 49.4654 125.776 49.7725Z" fill="#3F3D56"/>
<path d="M12.1531 80.1614L11.403 81.0983L8.75 79.5358L9.50005 78.5986L12.1531 80.1614Z" fill="#E4E4E4"/>
<path d="M14.9213 84.1865L15.5839 85.171L12.7969 86.5513L12.1343 85.5668L14.9213 84.1865Z" fill="#E4E4E4"/>
<path d="M17.8066 79.9072L19.1306 79.9538L18.9989 82.7121L17.6748 82.6655L17.8066 79.9072Z" fill="#E4E4E4"/>
<path d="M43.3894 5.52074L42.6393 6.4577L39.9863 4.89516L40.7364 3.95801L43.3894 5.52074Z" fill="#E4E4E4"/>
<path d="M46.1579 9.54688L46.8205 10.5313L44.0334 11.9116L43.3708 10.9271L46.1579 9.54688Z" fill="#E4E4E4"/>
<path d="M49.0429 5.26758L50.3669 5.31413L50.2352 8.07242L48.9111 8.02587L49.0429 5.26758Z" fill="#E4E4E4"/>
<path d="M117.032 15.3225L116.282 16.2595L113.629 14.6969L114.379 13.7598L117.032 15.3225Z" fill="#E4E4E4"/>
<path d="M119.8 19.3486L120.463 20.3331L117.676 21.7134L117.013 20.7289L119.8 19.3486Z" fill="#E4E4E4"/>
<path d="M122.685 15.0684L124.009 15.1149L123.878 17.8732L122.553 17.8266L122.685 15.0684Z" fill="#E4E4E4"/>
<path d="M94.5037 1.56273L93.7536 2.49969L91.1006 0.937147L91.8506 0L94.5037 1.56273Z" fill="#E4E4E4"/>
<path d="M97.2719 5.58887L97.9345 6.57332L95.1475 7.9536L94.4849 6.96914L97.2719 5.58887Z" fill="#E4E4E4"/>
<path d="M100.157 1.30859L101.481 1.35515L101.349 4.11344L100.025 4.06688L100.157 1.30859Z" fill="#E4E4E4"/>
<path d="M117.408 72.0012L116.657 73.0889L119.311 74.9026L120.061 73.815L117.408 72.0012Z" fill="#E4E4E4"/>
<path d="M120.042 80.0898L120.705 81.2324L123.492 79.6303L122.829 78.4877L120.042 80.0898Z" fill="#E4E4E4"/>
<path d="M125.582 76.7223L126.906 76.7764L127.038 73.5748L125.714 73.5208L125.582 76.7223Z" fill="#E4E4E4"/>
<path d="M61.1286 121.36L63.4221 121.007L61.8497 102.762L56.7383 103.704L61.1286 121.36Z" fill="#FFB6B6"/>
<path d="M60.4275 120.704L64.9445 120.009L64.9447 120.009C65.7082 119.891 66.4872 120.08 67.1105 120.535C67.7338 120.989 68.1503 121.671 68.2684 122.432L68.2829 122.525L60.8871 123.663L60.4275 120.704Z" fill="#2F2E41"/>
<path d="M37.0222 121.134L39.3409 121.232L42.1613 105.023L37.0499 105.024L37.0222 121.134Z" fill="#FFB6B6"/>
<path d="M36.4629 120.354L41.0295 120.548H41.0297C41.8015 120.581 42.5287 120.918 43.0511 121.484C43.5736 122.051 43.8487 122.801 43.8159 123.569L43.8118 123.663L36.335 123.346L36.4629 120.354Z" fill="#2F2E41"/>
<path d="M41.5874 68.3244C41.478 68.2938 41.366 68.273 41.2528 68.2624L42.6983 56.4819L47.6032 46.1401C47.9118 45.4896 47.9611 44.7467 47.7412 44.0614C47.5213 43.376 47.0485 42.7992 46.4183 42.4473C45.788 42.0953 45.0472 41.9945 44.3452 42.165C43.6431 42.3355 43.0322 42.7647 42.6355 43.3661V43.3661C41.35 45.3149 40.3776 47.4513 39.7533 49.6984L37.6926 57.1166L39.1995 69.8379C39.1417 70.1965 39.1892 70.564 39.3363 70.8963C39.4834 71.2286 39.7238 71.5115 40.0286 71.711C40.3333 71.9105 40.6895 72.018 41.0543 72.0207C41.419 72.0233 41.7767 71.921 42.0844 71.726C42.3921 71.531 42.6366 71.2516 42.7886 70.9215C42.9406 70.5914 42.9935 70.2245 42.941 69.8652C42.8885 69.5058 42.7328 69.1692 42.4926 68.8959C42.2525 68.6225 41.9382 68.4241 41.5874 68.3244H41.5874Z" fill="#FFB6B6"/>
<path d="M44.5655 57.4788L38.3687 50.4207L41.4386 43.2315C41.8406 42.2901 42.5962 41.5424 43.5441 41.1479C44.4921 40.7535 45.5574 40.7435 46.5127 41.1202C47.4679 41.4969 48.2375 42.2303 48.6572 43.1641C49.0768 44.0978 49.1133 45.1579 48.7589 46.118L44.5655 57.4788Z" fill="#2F2E41"/>
<path d="M54.8666 34.9782C56.3576 32.2628 55.3552 28.8582 52.6279 27.3738C49.9005 25.8894 46.4809 26.8874 44.99 29.6028C43.4991 32.3182 44.5015 35.7229 47.2288 37.2073C49.9562 38.6917 53.3757 37.6937 54.8666 34.9782Z" fill="#FFB6B6"/>
<path d="M50.8695 25.4824H47.234C44.8506 25.4824 42.9185 27.6466 42.9185 30.3162L43.0867 36.7915C45.662 37.1105 48.1809 37.7813 50.5723 38.7849L50.9116 37.3421L51.5809 39.2422C52.1762 39.5294 52.7665 39.8434 53.3517 40.1842C52.6687 36.9892 52.3876 33.8016 52.8565 31.3255H54.0878V29.9838L54.5058 31.3255H56.7382V31.3254C56.7382 30.5581 56.5864 29.7983 56.2915 29.0894C55.9966 28.3805 55.5643 27.7364 55.0193 27.1938C54.4744 26.6512 53.8274 26.2208 53.1154 25.9272C52.4034 25.6335 51.6402 25.4824 50.8695 25.4824Z" fill="#2F2E41"/>
<path d="M62.7238 103.753L62.1971 103.879L61.755 95.6933L58.5367 71.1903L54.8452 61.8603L56.6436 55.3576C56.6436 55.3576 58.7261 50.8339 53.52 47.3469L49.3551 40.373C46.4782 38.5001 44.1112 39.7247 42.8494 42.9081C41.7499 45.6819 40.8965 49.191 41.404 52.813C42.5411 60.9264 43.4865 61.8603 43.4865 61.8603C43.4865 61.8603 36.3873 69.6824 37.9018 79.6721L37.0577 105.537L36.2855 105.505L36.2009 107.56L42.9473 107.835L43.0319 105.781L42.4723 105.758L44.9063 95.5048L48.5032 81.9339L54.7505 98.5206L56.8518 105.161L56.1595 105.327L56.6431 107.326L63.2073 105.752L62.7238 103.753Z" fill="#2F2E41"/>
<path d="M67.3599 57.307C67.2835 57.3908 67.2148 57.4813 67.1546 57.5774L57.2152 51.0262L50.114 42.0365C49.6673 41.471 49.0219 41.0951 48.3078 40.9848C47.5937 40.8745 46.8642 41.0378 46.2664 41.442C45.6685 41.8461 45.2469 42.4609 45.0864 43.1624C44.926 43.8639 45.0387 44.5999 45.4018 45.2219C46.5785 47.2377 48.0637 49.0584 49.8039 50.6185L55.5488 55.7684L67.6529 60.1103C67.9493 60.322 68.3007 60.4439 68.6651 60.4613C69.0294 60.4788 69.391 60.3911 69.7064 60.2087C70.0219 60.0263 70.2776 59.7571 70.443 59.4334C70.6083 59.1098 70.6762 58.7454 70.6385 58.3842C70.6007 58.023 70.4589 57.6803 70.2302 57.3975C70.0015 57.1146 69.6955 56.9036 69.3491 56.7898C69.0028 56.676 68.6307 56.6643 68.2778 56.756C67.9249 56.8478 67.6062 57.0392 67.3599 57.307H67.3599Z" fill="#FFB6B6"/>
<path d="M58.9454 49.8086L49.8345 52.1747L44.7463 46.2281C44.08 45.4494 43.7457 44.4423 43.8148 43.4217C43.884 42.401 44.351 41.4477 45.1163 40.7651C45.8815 40.0825 46.8844 39.7248 47.911 39.7682C48.9375 39.8116 49.9063 40.2527 50.6107 40.9974L58.9454 49.8086Z" fill="#2F2E41"/>
<path d="M129.564 123.856H7.02351C6.96372 123.856 6.90639 123.832 6.86412 123.79C6.82184 123.748 6.7981 123.691 6.7981 123.632C6.7981 123.572 6.82184 123.515 6.86412 123.473C6.90639 123.431 6.96372 123.407 7.02351 123.407H129.564C129.624 123.407 129.681 123.431 129.723 123.473C129.765 123.515 129.789 123.572 129.789 123.632C129.789 123.691 129.765 123.748 129.723 123.79C129.681 123.832 129.624 123.856 129.564 123.856Z" fill="#CACACA"/>
</g>
<defs>
<clipPath id="clip0_2474_84374">
<rect width="169" height="133" fill="white"/>
</clipPath>
</defs>
</svg>
