<svg width="158" height="18" viewBox="0 0 158 18" fill="none" xmlns="http://www.w3.org/2000/svg">
<path d="M4.364 17.692C3.884 17.692 3.508 17.564 3.236 17.308C2.98 17.036 2.852 16.652 2.852 16.156V8.02H1.748C1.364 8.02 1.068 7.924 0.86 7.732C0.652 7.524 0.548 7.244 0.548 6.892C0.548 6.524 0.652 6.244 0.86 6.052C1.068 5.86 1.364 5.764 1.748 5.764H3.716L2.852 6.556V5.74C2.852 4.092 3.268 2.86 4.1 2.044C4.932 1.212 6.132 0.723999 7.7 0.579999L8.516 0.508C8.836 0.475999 9.092 0.531999 9.284 0.675999C9.476 0.803999 9.604 0.98 9.668 1.204C9.732 1.412 9.74 1.628 9.692 1.852C9.644 2.076 9.54 2.276 9.38 2.452C9.236 2.612 9.044 2.7 8.804 2.716L8.468 2.74C7.556 2.804 6.892 3.036 6.476 3.436C6.06 3.836 5.852 4.444 5.852 5.26V6.148L5.468 5.764H7.892C8.276 5.764 8.572 5.86 8.78 6.052C8.988 6.244 9.092 6.524 9.092 6.892C9.092 7.244 8.988 7.524 8.78 7.732C8.572 7.924 8.276 8.02 7.892 8.02H5.852V16.156C5.852 17.18 5.356 17.692 4.364 17.692ZM16.3295 17.74C15.1135 17.74 14.0575 17.492 13.1615 16.996C12.2655 16.5 11.5695 15.796 11.0735 14.884C10.5775 13.956 10.3295 12.868 10.3295 11.62C10.3295 10.676 10.4655 9.836 10.7375 9.1C11.0255 8.348 11.4335 7.708 11.9615 7.18C12.4895 6.636 13.1215 6.228 13.8575 5.956C14.5935 5.668 15.4175 5.524 16.3295 5.524C17.5455 5.524 18.6015 5.772 19.4975 6.268C20.3935 6.764 21.0895 7.468 21.5855 8.38C22.0815 9.292 22.3295 10.372 22.3295 11.62C22.3295 12.564 22.1855 13.412 21.8975 14.164C21.6255 14.916 21.2255 15.564 20.6975 16.108C20.1695 16.636 19.5375 17.044 18.8015 17.332C18.0655 17.604 17.2415 17.74 16.3295 17.74ZM16.3295 15.46C16.9215 15.46 17.4415 15.316 17.8895 15.028C18.3375 14.74 18.6815 14.316 18.9215 13.756C19.1775 13.18 19.3055 12.468 19.3055 11.62C19.3055 10.34 19.0335 9.388 18.4895 8.764C17.9455 8.124 17.2255 7.804 16.3295 7.804C15.7375 7.804 15.2175 7.948 14.7695 8.236C14.3215 8.508 13.9695 8.932 13.7135 9.508C13.4735 10.068 13.3535 10.772 13.3535 11.62C13.3535 12.884 13.6255 13.844 14.1695 14.5C14.7135 15.14 15.4335 15.46 16.3295 15.46ZM29.5336 17.74C28.5576 17.74 27.7496 17.564 27.1096 17.212C26.4696 16.844 25.9896 16.3 25.6696 15.58C25.3656 14.86 25.2136 13.964 25.2136 12.892V7.084C25.2136 6.572 25.3416 6.196 25.5976 5.956C25.8536 5.7 26.2216 5.572 26.7016 5.572C27.1816 5.572 27.5496 5.7 27.8056 5.956C28.0776 6.196 28.2136 6.572 28.2136 7.084V12.94C28.2136 13.772 28.3816 14.388 28.7176 14.788C29.0536 15.188 29.5896 15.388 30.3256 15.388C31.1256 15.388 31.7816 15.116 32.2936 14.572C32.8056 14.012 33.0616 13.276 33.0616 12.364V7.084C33.0616 6.572 33.1896 6.196 33.4456 5.956C33.7016 5.7 34.0696 5.572 34.5496 5.572C35.0296 5.572 35.3976 5.7 35.6536 5.956C35.9256 6.196 36.0616 6.572 36.0616 7.084V16.156C36.0616 17.18 35.5736 17.692 34.5976 17.692C34.1336 17.692 33.7736 17.564 33.5176 17.308C33.2616 17.036 33.1336 16.652 33.1336 16.156V14.332L33.4696 15.052C33.1336 15.916 32.6216 16.58 31.9336 17.044C31.2616 17.508 30.4616 17.74 29.5336 17.74ZM41.2001 17.692C40.7041 17.692 40.3201 17.564 40.0481 17.308C39.7921 17.036 39.6641 16.652 39.6641 16.156V7.084C39.6641 6.588 39.7921 6.212 40.0481 5.956C40.3041 5.7 40.6641 5.572 41.1281 5.572C41.5921 5.572 41.9521 5.7 42.2081 5.956C42.4641 6.212 42.5921 6.588 42.5921 7.084V8.596H42.3521C42.5761 7.636 43.0161 6.908 43.6721 6.412C44.3281 5.916 45.2001 5.62 46.2881 5.524C46.6241 5.492 46.8881 5.58 47.0801 5.788C47.2881 5.98 47.4081 6.284 47.4401 6.7C47.4721 7.1 47.3761 7.428 47.1521 7.684C46.9441 7.924 46.6241 8.068 46.1921 8.116L45.6641 8.164C44.6881 8.26 43.9521 8.564 43.4561 9.076C42.9601 9.572 42.7121 10.276 42.7121 11.188V16.156C42.7121 16.652 42.5841 17.036 42.3281 17.308C42.0721 17.564 41.6961 17.692 41.2001 17.692ZM51.0785 17.692C50.5985 17.692 50.2305 17.564 49.9745 17.308C49.7185 17.036 49.5905 16.652 49.5905 16.156V7.084C49.5905 6.588 49.7185 6.212 49.9745 5.956C50.2305 5.7 50.5905 5.572 51.0545 5.572C51.5185 5.572 51.8785 5.7 52.1345 5.956C52.3905 6.212 52.5185 6.588 52.5185 7.084V8.836L52.2545 8.116C52.5745 7.316 53.0705 6.684 53.7425 6.22C54.4145 5.756 55.2145 5.524 56.1425 5.524C57.0865 5.524 57.8625 5.748 58.4705 6.196C59.0785 6.644 59.5025 7.332 59.7425 8.26H59.4065C59.7265 7.412 60.2545 6.748 60.9905 6.268C61.7265 5.772 62.5745 5.524 63.5345 5.524C64.4305 5.524 65.1665 5.7 65.7425 6.052C66.3345 6.404 66.7745 6.94 67.0625 7.66C67.3505 8.364 67.4945 9.26 67.4945 10.348V16.156C67.4945 16.652 67.3585 17.036 67.0865 17.308C66.8305 17.564 66.4625 17.692 65.9825 17.692C65.5025 17.692 65.1345 17.564 64.8785 17.308C64.6225 17.036 64.4945 16.652 64.4945 16.156V10.468C64.4945 9.572 64.3425 8.916 64.0385 8.5C63.7505 8.084 63.2545 7.876 62.5505 7.876C61.7665 7.876 61.1505 8.156 60.7025 8.716C60.2545 9.26 60.0305 10.02 60.0305 10.996V16.156C60.0305 16.652 59.9025 17.036 59.6465 17.308C59.3905 17.564 59.0225 17.692 58.5425 17.692C58.0625 17.692 57.6865 17.564 57.4145 17.308C57.1585 17.036 57.0305 16.652 57.0305 16.156V10.468C57.0305 9.572 56.8785 8.916 56.5745 8.5C56.2865 8.084 55.7985 7.876 55.1105 7.876C54.3265 7.876 53.7105 8.156 53.2625 8.716C52.8145 9.26 52.5905 10.02 52.5905 10.996V16.156C52.5905 17.18 52.0865 17.692 51.0785 17.692ZM74.9334 17.74C74.0854 17.74 73.3254 17.58 72.6534 17.26C71.9974 16.924 71.4774 16.476 71.0934 15.916C70.7254 15.356 70.5414 14.724 70.5414 14.02C70.5414 13.156 70.7654 12.476 71.2134 11.98C71.6614 11.468 72.3894 11.1 73.3974 10.876C74.4054 10.652 75.7574 10.54 77.4534 10.54H78.6534V12.268H77.4774C76.4854 12.268 75.6934 12.316 75.1014 12.412C74.5094 12.508 74.0854 12.676 73.8294 12.916C73.5894 13.14 73.4694 13.46 73.4694 13.876C73.4694 14.404 73.6534 14.836 74.0214 15.172C74.3894 15.508 74.9014 15.676 75.5574 15.676C76.0854 15.676 76.5494 15.556 76.9494 15.316C77.3654 15.06 77.6934 14.716 77.9334 14.284C78.1734 13.852 78.2934 13.356 78.2934 12.796V10.036C78.2934 9.236 78.1174 8.66 77.7654 8.308C77.4134 7.956 76.8214 7.78 75.9894 7.78C75.5254 7.78 75.0214 7.836 74.4774 7.948C73.9494 8.06 73.3894 8.252 72.7974 8.524C72.4934 8.668 72.2214 8.708 71.9814 8.644C71.7574 8.58 71.5814 8.452 71.4534 8.26C71.3254 8.052 71.2614 7.828 71.2614 7.588C71.2614 7.348 71.3254 7.116 71.4534 6.892C71.5814 6.652 71.7974 6.476 72.1014 6.364C72.8374 6.06 73.5414 5.844 74.2134 5.716C74.9014 5.588 75.5254 5.524 76.0854 5.524C77.2374 5.524 78.1814 5.7 78.9174 6.052C79.6694 6.404 80.2294 6.94 80.5974 7.66C80.9654 8.364 81.1494 9.276 81.1494 10.396V16.156C81.1494 16.652 81.0294 17.036 80.7894 17.308C80.5494 17.564 80.2054 17.692 79.7574 17.692C79.3094 17.692 78.9574 17.564 78.7014 17.308C78.4614 17.036 78.3414 16.652 78.3414 16.156V15.004H78.5334C78.4214 15.564 78.1974 16.052 77.8614 16.468C77.5414 16.868 77.1334 17.18 76.6374 17.404C76.1414 17.628 75.5734 17.74 74.9334 17.74ZM86.1624 17.692C85.6824 17.692 85.3144 17.564 85.0584 17.308C84.8024 17.036 84.6744 16.652 84.6744 16.156V1.9C84.6744 1.404 84.8024 1.028 85.0584 0.771999C85.3144 0.515999 85.6824 0.387999 86.1624 0.387999C86.6424 0.387999 87.0104 0.515999 87.2664 0.771999C87.5384 1.028 87.6744 1.404 87.6744 1.9V10.756H87.7224L91.6824 6.58C92.0024 6.26 92.2824 6.012 92.5224 5.836C92.7624 5.66 93.0904 5.572 93.5064 5.572C93.9224 5.572 94.2344 5.684 94.4424 5.908C94.6664 6.116 94.7784 6.372 94.7784 6.676C94.7784 6.98 94.6344 7.284 94.3464 7.588L90.1704 12.004V10.756L94.7544 15.7C95.0424 16.004 95.1704 16.316 95.1384 16.636C95.1224 16.94 94.9944 17.196 94.7544 17.404C94.5144 17.596 94.2104 17.692 93.8424 17.692C93.3944 17.692 93.0344 17.604 92.7624 17.428C92.5064 17.252 92.2184 16.988 91.8984 16.636L87.7224 12.268H87.6744V16.156C87.6744 17.18 87.1704 17.692 86.1624 17.692ZM103.571 17.74C102.243 17.74 101.099 17.492 100.139 16.996C99.1792 16.5 98.4352 15.796 97.9072 14.884C97.3952 13.972 97.1392 12.892 97.1392 11.644C97.1392 10.428 97.3872 9.364 97.8832 8.452C98.3952 7.54 99.0912 6.828 99.9712 6.316C100.867 5.788 101.883 5.524 103.019 5.524C103.851 5.524 104.595 5.66 105.251 5.932C105.923 6.204 106.491 6.596 106.955 7.108C107.435 7.62 107.795 8.244 108.035 8.98C108.291 9.7 108.419 10.516 108.419 11.428C108.419 11.716 108.315 11.94 108.107 12.1C107.915 12.244 107.635 12.316 107.267 12.316H99.5632V10.588H106.307L105.923 10.948C105.923 10.212 105.811 9.596 105.587 9.1C105.379 8.604 105.067 8.228 104.651 7.972C104.251 7.7 103.747 7.564 103.139 7.564C102.467 7.564 101.891 7.724 101.411 8.044C100.947 8.348 100.587 8.788 100.331 9.364C100.091 9.924 99.9712 10.596 99.9712 11.38V11.548C99.9712 12.86 100.275 13.844 100.883 14.5C101.507 15.14 102.419 15.46 103.619 15.46C104.035 15.46 104.499 15.412 105.011 15.316C105.539 15.204 106.035 15.02 106.499 14.764C106.835 14.572 107.131 14.492 107.387 14.524C107.643 14.54 107.843 14.628 107.987 14.788C108.147 14.948 108.243 15.148 108.275 15.388C108.307 15.612 108.259 15.844 108.131 16.084C108.019 16.324 107.819 16.532 107.531 16.708C106.971 17.06 106.323 17.324 105.587 17.5C104.867 17.66 104.195 17.74 103.571 17.74ZM112.811 17.692C112.315 17.692 111.931 17.564 111.659 17.308C111.403 17.036 111.275 16.652 111.275 16.156V7.084C111.275 6.588 111.403 6.212 111.659 5.956C111.915 5.7 112.275 5.572 112.739 5.572C113.203 5.572 113.563 5.7 113.819 5.956C114.075 6.212 114.203 6.588 114.203 7.084V8.596H113.963C114.187 7.636 114.627 6.908 115.283 6.412C115.939 5.916 116.811 5.62 117.899 5.524C118.235 5.492 118.499 5.58 118.691 5.788C118.899 5.98 119.019 6.284 119.051 6.7C119.083 7.1 118.987 7.428 118.763 7.684C118.555 7.924 118.235 8.068 117.803 8.116L117.275 8.164C116.299 8.26 115.563 8.564 115.067 9.076C114.571 9.572 114.323 10.276 114.323 11.188V16.156C114.323 16.652 114.195 17.036 113.939 17.308C113.683 17.564 113.307 17.692 112.811 17.692ZM125.332 17.74C124.644 17.74 123.916 17.668 123.148 17.524C122.38 17.38 121.692 17.132 121.084 16.78C120.828 16.62 120.644 16.436 120.532 16.228C120.436 16.004 120.396 15.788 120.412 15.58C120.444 15.356 120.524 15.164 120.652 15.004C120.796 14.844 120.972 14.74 121.18 14.692C121.404 14.644 121.644 14.684 121.9 14.812C122.54 15.116 123.14 15.332 123.7 15.46C124.26 15.572 124.812 15.628 125.356 15.628C126.124 15.628 126.692 15.5 127.06 15.244C127.444 14.972 127.636 14.62 127.636 14.188C127.636 13.82 127.508 13.54 127.252 13.348C127.012 13.14 126.644 12.988 126.148 12.892L123.748 12.436C122.756 12.244 121.996 11.884 121.468 11.356C120.956 10.812 120.7 10.116 120.7 9.268C120.7 8.5 120.908 7.836 121.324 7.276C121.756 6.716 122.348 6.284 123.1 5.98C123.852 5.676 124.716 5.524 125.692 5.524C126.396 5.524 127.052 5.604 127.66 5.764C128.284 5.908 128.884 6.14 129.46 6.46C129.7 6.588 129.86 6.756 129.94 6.964C130.036 7.172 130.06 7.388 130.012 7.612C129.964 7.82 129.868 8.012 129.724 8.188C129.58 8.348 129.396 8.452 129.172 8.5C128.964 8.532 128.724 8.484 128.452 8.356C127.956 8.1 127.476 7.916 127.012 7.804C126.564 7.692 126.132 7.636 125.716 7.636C124.932 7.636 124.348 7.772 123.964 8.044C123.596 8.316 123.412 8.676 123.412 9.124C123.412 9.46 123.524 9.74 123.748 9.964C123.972 10.188 124.316 10.34 124.78 10.42L127.18 10.876C128.22 11.068 129.004 11.42 129.532 11.932C130.076 12.444 130.348 13.132 130.348 13.996C130.348 15.164 129.892 16.084 128.98 16.756C128.068 17.412 126.852 17.74 125.332 17.74ZM134.558 17.62C134.014 17.62 133.574 17.452 133.238 17.116C132.918 16.78 132.758 16.348 132.758 15.82C132.758 15.308 132.918 14.892 133.238 14.572C133.574 14.236 134.014 14.068 134.558 14.068C135.118 14.068 135.55 14.236 135.854 14.572C136.174 14.892 136.334 15.308 136.334 15.82C136.334 16.348 136.174 16.78 135.854 17.116C135.55 17.452 135.118 17.62 134.558 17.62Z" fill="white"/>
<path d="M141.039 17.668C140.559 17.668 140.191 17.524 139.935 17.236C139.679 16.948 139.551 16.548 139.551 16.036V7.228C139.551 6.7 139.679 6.3 139.935 6.028C140.191 5.74 140.559 5.596 141.039 5.596C141.519 5.596 141.887 5.74 142.143 6.028C142.415 6.3 142.551 6.7 142.551 7.228V16.036C142.551 16.548 142.423 16.948 142.167 17.236C141.911 17.524 141.535 17.668 141.039 17.668ZM141.039 3.364C140.479 3.364 140.039 3.228 139.719 2.956C139.415 2.668 139.263 2.276 139.263 1.78C139.263 1.268 139.415 0.875999 139.719 0.603999C140.039 0.331999 140.479 0.196 141.039 0.196C141.615 0.196 142.055 0.331999 142.359 0.603999C142.663 0.875999 142.815 1.268 142.815 1.78C142.815 2.276 142.663 2.668 142.359 2.956C142.055 3.228 141.615 3.364 141.039 3.364ZM151.5 17.74C150.284 17.74 149.228 17.492 148.332 16.996C147.436 16.5 146.74 15.796 146.244 14.884C145.748 13.956 145.5 12.868 145.5 11.62C145.5 10.676 145.636 9.836 145.908 9.1C146.196 8.348 146.604 7.708 147.132 7.18C147.66 6.636 148.292 6.228 149.028 5.956C149.764 5.668 150.588 5.524 151.5 5.524C152.716 5.524 153.772 5.772 154.668 6.268C155.564 6.764 156.26 7.468 156.756 8.38C157.252 9.292 157.5 10.372 157.5 11.62C157.5 12.564 157.356 13.412 157.068 14.164C156.796 14.916 156.396 15.564 155.868 16.108C155.34 16.636 154.708 17.044 153.972 17.332C153.236 17.604 152.412 17.74 151.5 17.74ZM151.5 15.46C152.092 15.46 152.612 15.316 153.06 15.028C153.508 14.74 153.852 14.316 154.092 13.756C154.348 13.18 154.476 12.468 154.476 11.62C154.476 10.34 154.204 9.388 153.66 8.764C153.116 8.124 152.396 7.804 151.5 7.804C150.908 7.804 150.388 7.948 149.94 8.236C149.492 8.508 149.14 8.932 148.884 9.508C148.644 10.068 148.524 10.772 148.524 11.62C148.524 12.884 148.796 13.844 149.34 14.5C149.884 15.14 150.604 15.46 151.5 15.46Z" fill="#E44B15"/>
</svg>
